solid OpenSCAD_Model
  facet normal -0 0 -1
    outer loop
      vertex 10.2 0 0
      vertex 1.93185 -0.517637 0
      vertex 2 0 0
    endloop
  endfacet
  facet normal 0 0 -1
    outer loop
      vertex 10.2 0 0
      vertex 1.73205 -1 0
      vertex 1.93185 -0.517637 0
    endloop
  endfacet
  facet normal 0 0 -1
    outer loop
      vertex 10.2 0 0
      vertex 1.41421 -1.41421 0
      vertex 1.73205 -1 0
    endloop
  endfacet
  facet normal 0 0 -1
    outer loop
      vertex 10.2 0 0
      vertex 1 -1.73205 0
      vertex 1.41421 -1.41421 0
    endloop
  endfacet
  facet normal 0 0 -1
    outer loop
      vertex -5.1 -8.83346 0
      vertex 1 -1.73205 0
      vertex 10.2 0 0
    endloop
  endfacet
  facet normal -0 0 -1
    outer loop
      vertex -1.93185 -0.517637 0
      vertex -5.1 -8.83346 0
      vertex -2 0 0
    endloop
  endfacet
  facet normal -0 0 -1
    outer loop
      vertex -1.73205 -1 0
      vertex -5.1 -8.83346 0
      vertex -1.93185 -0.517637 0
    endloop
  endfacet
  facet normal -0 0 -1
    outer loop
      vertex -1.41421 -1.41421 0
      vertex -5.1 -8.83346 0
      vertex -1.73205 -1 0
    endloop
  endfacet
  facet normal -0 0 -1
    outer loop
      vertex -1 -1.73205 0
      vertex -5.1 -8.83346 0
      vertex -1.41421 -1.41421 0
    endloop
  endfacet
  facet normal -0 0 -1
    outer loop
      vertex -0.517637 -1.93185 0
      vertex -5.1 -8.83346 0
      vertex -1 -1.73205 0
    endloop
  endfacet
  facet normal -0 0 -1
    outer loop
      vertex 0 -2 0
      vertex -5.1 -8.83346 0
      vertex -0.517637 -1.93185 0
    endloop
  endfacet
  facet normal 0 0 -1
    outer loop
      vertex 0.517637 -1.93185 0
      vertex -5.1 -8.83346 0
      vertex 0 -2 0
    endloop
  endfacet
  facet normal 0 0 -1
    outer loop
      vertex 1 -1.73205 0
      vertex -5.1 -8.83346 0
      vertex 0.517637 -1.93185 0
    endloop
  endfacet
  facet normal 0 0 -1
    outer loop
      vertex 1.93185 0.517637 0
      vertex 10.2 0 0
      vertex 2 0 0
    endloop
  endfacet
  facet normal 0 0 -1
    outer loop
      vertex 1.73205 1 0
      vertex 10.2 0 0
      vertex 1.93185 0.517637 0
    endloop
  endfacet
  facet normal 0 0 -1
    outer loop
      vertex 1.41421 1.41421 0
      vertex 10.2 0 0
      vertex 1.73205 1 0
    endloop
  endfacet
  facet normal 0 0 -1
    outer loop
      vertex 1 1.73205 0
      vertex 10.2 0 0
      vertex 1.41421 1.41421 0
    endloop
  endfacet
  facet normal 0 0 -1
    outer loop
      vertex -5.1 8.83346 0
      vertex 1 1.73205 0
      vertex 0.517637 1.93185 0
    endloop
  endfacet
  facet normal 0 0 -1
    outer loop
      vertex -5.1 8.83346 0
      vertex -2 0 0
      vertex -5.1 -8.83346 0
    endloop
  endfacet
  facet normal 0 0 -1
    outer loop
      vertex 1 1.73205 0
      vertex -5.1 8.83346 0
      vertex 10.2 0 0
    endloop
  endfacet
  facet normal 0 0 -1
    outer loop
      vertex 0 2 0
      vertex -5.1 8.83346 0
      vertex 0.517637 1.93185 0
    endloop
  endfacet
  facet normal 0 0 -1
    outer loop
      vertex -0.517637 1.93185 0
      vertex -5.1 8.83346 0
      vertex 0 2 0
    endloop
  endfacet
  facet normal 0 0 -1
    outer loop
      vertex -1 1.73205 0
      vertex -5.1 8.83346 0
      vertex -0.517637 1.93185 0
    endloop
  endfacet
  facet normal 0 0 -1
    outer loop
      vertex -1.41421 1.41421 0
      vertex -5.1 8.83346 0
      vertex -1 1.73205 0
    endloop
  endfacet
  facet normal 0 0 -1
    outer loop
      vertex -1.73205 1 0
      vertex -5.1 8.83346 0
      vertex -1.41421 1.41421 0
    endloop
  endfacet
  facet normal 0 0 -1
    outer loop
      vertex -1.93185 0.517637 0
      vertex -5.1 8.83346 0
      vertex -1.73205 1 0
    endloop
  endfacet
  facet normal 0 0 -1
    outer loop
      vertex -2 0 0
      vertex -5.1 8.83346 0
      vertex -1.93185 0.517637 0
    endloop
  endfacet
  facet normal -1 0 0
    outer loop
      vertex -5.1 -8.83346 0
      vertex -5.1 8.83346 185
      vertex -5.1 8.83346 0
    endloop
  endfacet
  facet normal -1 -0 0
    outer loop
      vertex -5.1 8.83346 185
      vertex -5.1 -8.83346 0
      vertex -5.1 -8.83346 185
    endloop
  endfacet
  facet normal 0.5 -0.866025 0
    outer loop
      vertex -5.1 -8.83346 0
      vertex 10.2 0 185
      vertex -5.1 -8.83346 185
    endloop
  endfacet
  facet normal 0.5 -0.866025 0
    outer loop
      vertex 10.2 0 185
      vertex -5.1 -8.83346 0
      vertex 10.2 0 0
    endloop
  endfacet
  facet normal 0 0 1
    outer loop
      vertex 10.2 0 185
      vertex 1.93185 0.517637 185
      vertex 2 0 185
    endloop
  endfacet
  facet normal 0 0 1
    outer loop
      vertex 10.2 0 185
      vertex 1.73205 1 185
      vertex 1.93185 0.517637 185
    endloop
  endfacet
  facet normal 0 0 1
    outer loop
      vertex 10.2 0 185
      vertex 1.41421 1.41421 185
      vertex 1.73205 1 185
    endloop
  endfacet
  facet normal 0 0 1
    outer loop
      vertex 10.2 0 185
      vertex 1 1.73205 185
      vertex 1.41421 1.41421 185
    endloop
  endfacet
  facet normal 0 0 1
    outer loop
      vertex -5.1 8.83346 185
      vertex 1 1.73205 185
      vertex 10.2 0 185
    endloop
  endfacet
  facet normal 0 0 1
    outer loop
      vertex -1.93185 0.517637 185
      vertex -5.1 8.83346 185
      vertex -2 0 185
    endloop
  endfacet
  facet normal 0 0 1
    outer loop
      vertex -1.73205 1 185
      vertex -5.1 8.83346 185
      vertex -1.93185 0.517637 185
    endloop
  endfacet
  facet normal 0 0 1
    outer loop
      vertex -1.41421 1.41421 185
      vertex -5.1 8.83346 185
      vertex -1.73205 1 185
    endloop
  endfacet
  facet normal 0 0 1
    outer loop
      vertex -1 1.73205 185
      vertex -5.1 8.83346 185
      vertex -1.41421 1.41421 185
    endloop
  endfacet
  facet normal 0 0 1
    outer loop
      vertex -0.517637 1.93185 185
      vertex -5.1 8.83346 185
      vertex -1 1.73205 185
    endloop
  endfacet
  facet normal 0 0 1
    outer loop
      vertex 0 2 185
      vertex -5.1 8.83346 185
      vertex -0.517637 1.93185 185
    endloop
  endfacet
  facet normal 0 0 1
    outer loop
      vertex 0.517637 1.93185 185
      vertex -5.1 8.83346 185
      vertex 0 2 185
    endloop
  endfacet
  facet normal 0 0 1
    outer loop
      vertex 1 1.73205 185
      vertex -5.1 8.83346 185
      vertex 0.517637 1.93185 185
    endloop
  endfacet
  facet normal 0 0 1
    outer loop
      vertex 1.93185 -0.517637 185
      vertex 10.2 0 185
      vertex 2 0 185
    endloop
  endfacet
  facet normal 0 0 1
    outer loop
      vertex 1.73205 -1 185
      vertex 10.2 0 185
      vertex 1.93185 -0.517637 185
    endloop
  endfacet
  facet normal 0 0 1
    outer loop
      vertex 1.41421 -1.41421 185
      vertex 10.2 0 185
      vertex 1.73205 -1 185
    endloop
  endfacet
  facet normal 0 0 1
    outer loop
      vertex 1 -1.73205 185
      vertex 10.2 0 185
      vertex 1.41421 -1.41421 185
    endloop
  endfacet
  facet normal 0 0 1
    outer loop
      vertex -5.1 -8.83346 185
      vertex 1 -1.73205 185
      vertex 0.517637 -1.93185 185
    endloop
  endfacet
  facet normal 0 0 1
    outer loop
      vertex -5.1 -8.83346 185
      vertex -2 0 185
      vertex -5.1 8.83346 185
    endloop
  endfacet
  facet normal -0 0 1
    outer loop
      vertex 1 -1.73205 185
      vertex -5.1 -8.83346 185
      vertex 10.2 0 185
    endloop
  endfacet
  facet normal -0 0 1
    outer loop
      vertex 0 -2 185
      vertex -5.1 -8.83346 185
      vertex 0.517637 -1.93185 185
    endloop
  endfacet
  facet normal 0 0 1
    outer loop
      vertex -0.517637 -1.93185 185
      vertex -5.1 -8.83346 185
      vertex 0 -2 185
    endloop
  endfacet
  facet normal 0 0 1
    outer loop
      vertex -1 -1.73205 185
      vertex -5.1 -8.83346 185
      vertex -0.517637 -1.93185 185
    endloop
  endfacet
  facet normal 0 0 1
    outer loop
      vertex -1.41421 -1.41421 185
      vertex -5.1 -8.83346 185
      vertex -1 -1.73205 185
    endloop
  endfacet
  facet normal 0 0 1
    outer loop
      vertex -1.73205 -1 185
      vertex -5.1 -8.83346 185
      vertex -1.41421 -1.41421 185
    endloop
  endfacet
  facet normal 0 0 1
    outer loop
      vertex -1.93185 -0.517637 185
      vertex -5.1 -8.83346 185
      vertex -1.73205 -1 185
    endloop
  endfacet
  facet normal 0 0 1
    outer loop
      vertex -2 0 185
      vertex -5.1 -8.83346 185
      vertex -1.93185 -0.517637 185
    endloop
  endfacet
  facet normal 0.5 0.866025 -0
    outer loop
      vertex 10.2 0 0
      vertex -5.1 8.83346 185
      vertex 10.2 0 185
    endloop
  endfacet
  facet normal 0.5 0.866025 0
    outer loop
      vertex -5.1 8.83346 185
      vertex 10.2 0 0
      vertex -5.1 8.83346 0
    endloop
  endfacet
  facet normal 0.991444 -0.13053 0
    outer loop
      vertex -2 0 185
      vertex -1.93185 0.517637 0
      vertex -1.93185 0.517637 185
    endloop
  endfacet
  facet normal 0.991444 -0.13053 0
    outer loop
      vertex -1.93185 0.517637 0
      vertex -2 0 185
      vertex -2 0 0
    endloop
  endfacet
  facet normal -0.92388 -0.382681 0
    outer loop
      vertex 1.93185 0.517637 0
      vertex 1.73205 1 185
      vertex 1.73205 1 0
    endloop
  endfacet
  facet normal -0.92388 -0.382681 0
    outer loop
      vertex 1.73205 1 185
      vertex 1.93185 0.517637 0
      vertex 1.93185 0.517637 185
    endloop
  endfacet
  facet normal -0.991444 -0.13053 0
    outer loop
      vertex 2 0 0
      vertex 1.93185 0.517637 185
      vertex 1.93185 0.517637 0
    endloop
  endfacet
  facet normal -0.991444 -0.13053 0
    outer loop
      vertex 1.93185 0.517637 185
      vertex 2 0 0
      vertex 2 0 185
    endloop
  endfacet
  facet normal -0.793348 -0.608768 0
    outer loop
      vertex 1.73205 1 0
      vertex 1.41421 1.41421 185
      vertex 1.41421 1.41421 0
    endloop
  endfacet
  facet normal -0.793348 -0.608768 0
    outer loop
      vertex 1.41421 1.41421 185
      vertex 1.73205 1 0
      vertex 1.73205 1 185
    endloop
  endfacet
  facet normal -0.991444 0.13053 0
    outer loop
      vertex 1.93185 -0.517637 0
      vertex 2 0 185
      vertex 2 0 0
    endloop
  endfacet
  facet normal -0.991444 0.13053 0
    outer loop
      vertex 2 0 185
      vertex 1.93185 -0.517637 0
      vertex 1.93185 -0.517637 185
    endloop
  endfacet
  facet normal -0.13053 0.991444 0
    outer loop
      vertex 0.517637 -1.93185 0
      vertex 0 -2 185
      vertex 0.517637 -1.93185 185
    endloop
  endfacet
  facet normal -0.13053 0.991444 0
    outer loop
      vertex 0 -2 185
      vertex 0.517637 -1.93185 0
      vertex 0 -2 0
    endloop
  endfacet
  facet normal 0.92388 -0.382681 0
    outer loop
      vertex -1.93185 0.517637 185
      vertex -1.73205 1 0
      vertex -1.73205 1 185
    endloop
  endfacet
  facet normal 0.92388 -0.382681 0
    outer loop
      vertex -1.73205 1 0
      vertex -1.93185 0.517637 185
      vertex -1.93185 0.517637 0
    endloop
  endfacet
  facet normal -0.608768 0.793348 0
    outer loop
      vertex 1.41421 -1.41421 0
      vertex 1 -1.73205 185
      vertex 1.41421 -1.41421 185
    endloop
  endfacet
  facet normal -0.608768 0.793348 0
    outer loop
      vertex 1 -1.73205 185
      vertex 1.41421 -1.41421 0
      vertex 1 -1.73205 0
    endloop
  endfacet
  facet normal -0.382681 -0.92388 0
    outer loop
      vertex 0.517637 1.93185 0
      vertex 1 1.73205 185
      vertex 0.517637 1.93185 185
    endloop
  endfacet
  facet normal -0.382681 -0.92388 -0
    outer loop
      vertex 1 1.73205 185
      vertex 0.517637 1.93185 0
      vertex 1 1.73205 0
    endloop
  endfacet
  facet normal 0.793348 -0.608768 0
    outer loop
      vertex -1.73205 1 185
      vertex -1.41421 1.41421 0
      vertex -1.41421 1.41421 185
    endloop
  endfacet
  facet normal 0.793348 -0.608768 0
    outer loop
      vertex -1.41421 1.41421 0
      vertex -1.73205 1 185
      vertex -1.73205 1 0
    endloop
  endfacet
  facet normal 0.92388 0.382681 0
    outer loop
      vertex -1.73205 -1 185
      vertex -1.93185 -0.517637 0
      vertex -1.93185 -0.517637 185
    endloop
  endfacet
  facet normal 0.92388 0.382681 0
    outer loop
      vertex -1.93185 -0.517637 0
      vertex -1.73205 -1 185
      vertex -1.73205 -1 0
    endloop
  endfacet
  facet normal -0.13053 -0.991444 0
    outer loop
      vertex 0 2 0
      vertex 0.517637 1.93185 185
      vertex 0 2 185
    endloop
  endfacet
  facet normal -0.13053 -0.991444 -0
    outer loop
      vertex 0.517637 1.93185 185
      vertex 0 2 0
      vertex 0.517637 1.93185 0
    endloop
  endfacet
  facet normal 0.382681 -0.92388 0
    outer loop
      vertex -1 1.73205 0
      vertex -0.517637 1.93185 185
      vertex -1 1.73205 185
    endloop
  endfacet
  facet normal 0.382681 -0.92388 0
    outer loop
      vertex -0.517637 1.93185 185
      vertex -1 1.73205 0
      vertex -0.517637 1.93185 0
    endloop
  endfacet
  facet normal 0.13053 -0.991444 0
    outer loop
      vertex -0.517637 1.93185 0
      vertex 0 2 185
      vertex -0.517637 1.93185 185
    endloop
  endfacet
  facet normal 0.13053 -0.991444 0
    outer loop
      vertex 0 2 185
      vertex -0.517637 1.93185 0
      vertex 0 2 0
    endloop
  endfacet
  facet normal 0.608768 0.793348 -0
    outer loop
      vertex -1 -1.73205 0
      vertex -1.41421 -1.41421 185
      vertex -1 -1.73205 185
    endloop
  endfacet
  facet normal 0.608768 0.793348 0
    outer loop
      vertex -1.41421 -1.41421 185
      vertex -1 -1.73205 0
      vertex -1.41421 -1.41421 0
    endloop
  endfacet
  facet normal 0.608768 -0.793348 0
    outer loop
      vertex -1.41421 1.41421 0
      vertex -1 1.73205 185
      vertex -1.41421 1.41421 185
    endloop
  endfacet
  facet normal 0.608768 -0.793348 0
    outer loop
      vertex -1 1.73205 185
      vertex -1.41421 1.41421 0
      vertex -1 1.73205 0
    endloop
  endfacet
  facet normal -0.92388 0.382681 0
    outer loop
      vertex 1.73205 -1 0
      vertex 1.93185 -0.517637 185
      vertex 1.93185 -0.517637 0
    endloop
  endfacet
  facet normal -0.92388 0.382681 0
    outer loop
      vertex 1.93185 -0.517637 185
      vertex 1.73205 -1 0
      vertex 1.73205 -1 185
    endloop
  endfacet
  facet normal -0.793348 0.608768 0
    outer loop
      vertex 1.41421 -1.41421 0
      vertex 1.73205 -1 185
      vertex 1.73205 -1 0
    endloop
  endfacet
  facet normal -0.793348 0.608768 0
    outer loop
      vertex 1.73205 -1 185
      vertex 1.41421 -1.41421 0
      vertex 1.41421 -1.41421 185
    endloop
  endfacet
  facet normal -0.608768 -0.793348 0
    outer loop
      vertex 1 1.73205 0
      vertex 1.41421 1.41421 185
      vertex 1 1.73205 185
    endloop
  endfacet
  facet normal -0.608768 -0.793348 -0
    outer loop
      vertex 1.41421 1.41421 185
      vertex 1 1.73205 0
      vertex 1.41421 1.41421 0
    endloop
  endfacet
  facet normal 0.991444 0.13053 0
    outer loop
      vertex -1.93185 -0.517637 185
      vertex -2 0 0
      vertex -2 0 185
    endloop
  endfacet
  facet normal 0.991444 0.13053 0
    outer loop
      vertex -2 0 0
      vertex -1.93185 -0.517637 185
      vertex -1.93185 -0.517637 0
    endloop
  endfacet
  facet normal -0.382681 0.92388 0
    outer loop
      vertex 1 -1.73205 0
      vertex 0.517637 -1.93185 185
      vertex 1 -1.73205 185
    endloop
  endfacet
  facet normal -0.382681 0.92388 0
    outer loop
      vertex 0.517637 -1.93185 185
      vertex 1 -1.73205 0
      vertex 0.517637 -1.93185 0
    endloop
  endfacet
  facet normal 0.793348 0.608768 0
    outer loop
      vertex -1.41421 -1.41421 185
      vertex -1.73205 -1 0
      vertex -1.73205 -1 185
    endloop
  endfacet
  facet normal 0.793348 0.608768 0
    outer loop
      vertex -1.73205 -1 0
      vertex -1.41421 -1.41421 185
      vertex -1.41421 -1.41421 0
    endloop
  endfacet
  facet normal 0.382681 0.92388 -0
    outer loop
      vertex -0.517637 -1.93185 0
      vertex -1 -1.73205 185
      vertex -0.517637 -1.93185 185
    endloop
  endfacet
  facet normal 0.382681 0.92388 0
    outer loop
      vertex -1 -1.73205 185
      vertex -0.517637 -1.93185 0
      vertex -1 -1.73205 0
    endloop
  endfacet
  facet normal 0.13053 0.991444 -0
    outer loop
      vertex 0 -2 0
      vertex -0.517637 -1.93185 185
      vertex 0 -2 185
    endloop
  endfacet
  facet normal 0.13053 0.991444 0
    outer loop
      vertex -0.517637 -1.93185 185
      vertex 0 -2 0
      vertex -0.517637 -1.93185 0
    endloop
  endfacet
endsolid OpenSCAD_Model
